<?xml version="1.0" encoding="iso-8859-1"?>
<!-- Generator: Adobe Illustrator 26.4.1, SVG Export Plug-In . SVG Version: 6.00 Build 0)  -->
<svg version="1.1" id="Logo" xmlns="http://www.w3.org/2000/svg" xmlns:xlink="http://www.w3.org/1999/xlink" x="0px" y="0px"
	 viewBox="0 0 517.64 517.641" style="enable-background:new 0 0 517.64 517.641;" xml:space="preserve">
<g id="Matte_00000037652122290855923960000002911669109988881307_">
	<polygon style="fill:#FFFFFF;" points="173.316,69.395 86.926,6.233 86.926,132.558 	"/>
	<polygon style="fill:#FFFFFF;" points="344.926,69.395 431.317,132.558 431.317,6.232 	"/>
	<polygon style="fill:#FFFFFF;" points="259.054,132.044 172.664,68.881 172.664,195.207 	"/>
	<polygon style="fill:#FFFFFF;" points="86.273,132.044 172.664,195.207 172.664,68.881 	"/>
	<polygon style="fill:#FFFFFF;" points="172.731,195.207 259.121,258.37 259.121,132.044 	"/>
	<polygon style="fill:#FFFFFF;" points="431.25,132.044 344.859,68.881 344.859,195.206 	"/>
	<polygon style="fill:#FFFFFF;" points="258.469,132.044 344.859,195.206 344.859,68.881 	"/>
	<polygon style="fill:#FFFFFF;" points="344.926,195.206 431.317,258.369 431.317,132.044 	"/>
	<polygon style="fill:#FFFFFF;" points="345.512,195.206 259.121,132.044 259.121,258.369 	"/>
	<polygon style="fill:#FFFFFF;" points="0.603,321.018 86.993,384.181 86.993,257.855 	"/>
	<polygon style="fill:#FFFFFF;" points="259.054,257.855 172.664,194.693 172.664,321.018 	"/>
	<polygon style="fill:#FFFFFF;" points="86.273,257.855 172.664,321.018 172.664,194.693 	"/>
	<polygon style="fill:#FFFFFF;" points="172.731,321.018 259.121,384.181 259.121,257.855 	"/>
	<polygon style="fill:#FFFFFF;" points="173.316,321.018 86.926,257.855 86.926,384.181 	"/>
	<polygon style="fill:#FFFFFF;" points="431.25,257.855 344.859,194.692 344.859,321.018 	"/>
	<polygon style="fill:#FFFFFF;" points="258.469,257.855 344.859,321.018 344.859,194.692 	"/>
	<polygon style="fill:#FFFFFF;" points="344.926,321.018 431.317,384.181 431.317,257.855 	"/>
	<polygon style="fill:#FFFFFF;" points="345.512,321.018 259.121,257.855 259.121,384.181 	"/>
	<polygon style="fill:#FFFFFF;" points="517.64,321.018 431.25,257.855 431.25,384.181 	"/>
	<polygon style="fill:#FFFFFF;" points="259.054,383.667 172.664,320.504 172.664,446.83 	"/>
	<polygon style="fill:#FFFFFF;" points="86.273,383.667 172.664,446.83 172.664,320.504 	"/>
	<polygon style="fill:#FFFFFF;" points="172.731,446.83 259.121,509.993 259.121,383.667 	"/>
	<polygon style="fill:#FFFFFF;" points="431.25,383.667 344.859,320.504 344.859,446.829 	"/>
	<polygon style="fill:#FFFFFF;" points="258.469,383.667 344.859,446.829 344.859,320.504 	"/>
	<polygon style="fill:#FFFFFF;" points="345.512,446.829 259.121,383.667 259.121,509.992 	"/>
	<polygon style="fill:#FFFFFF;" points="173.316,195.207 86.926,132.044 86.926,258.37 	"/>
</g>
<g id="Fox_head">
	<polygon style="fill:#F1F1F1;" points="173.316,69.395 86.926,6.233 86.926,132.558 	"/>
	<polygon style="fill:#ECECEC;" points="344.926,69.395 431.317,132.558 431.317,6.232 	"/>
	<polygon style="fill:#F8F8F8;" points="259.054,132.044 172.664,68.881 172.664,195.207 	"/>
	<polygon style="fill:#E9E9E9;" points="86.273,132.044 172.664,195.207 172.664,68.881 	"/>
	<polygon style="fill:#DDDDDD;" points="172.731,195.207 259.121,258.37 259.121,132.044 	"/>
	<polygon style="fill:#E3E3E3;" points="431.25,132.044 344.859,68.881 344.859,195.206 	"/>
	<polygon style="fill:#DFDFDF;" points="258.469,132.044 344.859,195.206 344.859,68.881 	"/>
	<polygon style="fill:#F3F3F3;" points="344.926,195.206 431.317,258.369 431.317,132.044 	"/>
	<polygon style="fill:#E4E4E4;" points="345.512,195.206 259.121,132.044 259.121,258.369 	"/>
	<polygon style="fill:#F8F8F8;" points="0.603,321.018 86.993,384.181 86.993,257.855 	"/>
	<polygon style="fill:#FBFBFB;" points="259.054,257.855 172.664,194.693 172.664,321.018 	"/>
	<polygon style="fill:#F7F7F7;" points="86.273,257.855 172.664,321.018 172.664,194.693 	"/>
	<polygon style="fill:#EFEFEF;" points="172.731,321.018 259.121,384.181 259.121,257.855 	"/>
	<polygon style="fill:#EFEFEF;" points="173.316,321.018 86.926,257.855 86.926,384.181 	"/>
	<polygon style="fill:#FBFBFB;" points="431.25,257.855 344.859,194.692 344.859,321.018 	"/>
	<polygon style="fill:#F3F3F3;" points="258.469,257.855 344.859,321.018 344.859,194.692 	"/>
	<polygon style="fill:#F4F4F4;" points="344.926,321.018 431.317,384.181 431.317,257.855 	"/>
	<polygon style="fill:#FAFAFA;" points="345.512,321.018 259.121,257.855 259.121,384.181 	"/>
	<polygon style="fill:#EBEBEB;" points="517.64,321.018 431.25,257.855 431.25,384.181 	"/>
	<polygon style="fill:#FBFBFB;" points="259.054,383.667 172.664,320.504 172.664,446.83 	"/>
	<polygon style="fill:#F9F9F9;" points="86.273,383.667 172.664,446.83 172.664,320.504 	"/>
	<polygon style="fill:#6E6E6E;" points="172.731,446.83 259.121,509.993 259.121,383.667 	"/>
	<polygon style="fill:#EDEDED;" points="431.25,383.667 344.859,320.504 344.859,446.829 	"/>
	<polygon style="fill:#F7F7F7;" points="258.469,383.667 344.859,446.829 344.859,320.504 	"/>
	<polygon style="fill:#5D5D5D;" points="345.512,446.829 259.121,383.667 259.121,509.992 	"/>
	<polygon style="fill:#FBFBFB;" points="173.316,195.207 86.926,132.044 86.926,258.37 	"/>
</g>
</svg>
