<?xml version="1.0" encoding="iso-8859-1"?>
<!-- Generator: Adobe Illustrator 26.4.1, SVG Export Plug-In . SVG Version: 6.00 Build 0)  -->
<svg version="1.1" id="Layer_1" xmlns="http://www.w3.org/2000/svg" xmlns:xlink="http://www.w3.org/1999/xlink" x="0px" y="0px"
	 viewBox="0 0 505.646 512" style="enable-background:new 0 0 505.646 512;" xml:space="preserve">
<g>
	<linearGradient id="SVGID_1_" gradientUnits="userSpaceOnUse" x1="67.9497" y1="389.185" x2="437.5963" y2="19.5383">
		<stop  offset="0" style="stop-color:#FF0000"/>
		<stop  offset="0.2" style="stop-color:#FFB300"/>
		<stop  offset="0.4" style="stop-color:#33FF00"/>
		<stop  offset="0.6" style="stop-color:#007BFF"/>
		<stop  offset="0.8" style="stop-color:#E600FF"/>
		<stop  offset="1" style="stop-color:#FF0000"/>
	</linearGradient>
	<path style="fill:url(#SVGID_1_);" d="M386.699,295.967c9.977,20.021,15.57,42.596,15.57,66.476
		C402.269,445.04,335.31,512,252.712,512s-149.557-66.96-149.557-149.557c0-23.893,5.607-46.482,15.584-66.516
		C50.919,281.728,0,221.586,0,149.557C0,66.96,66.96,0,149.557,0c40.055,0,76.426,15.745,103.277,41.399
		C279.685,15.745,316.055,0,356.11,0c82.597,0,149.557,66.96,149.557,149.557C505.667,221.666,454.627,281.863,386.699,295.967z"/>
</g>
<g>
</g>
<g>
</g>
<g>
</g>
<g>
</g>
<g>
</g>
<g>
</g>
</svg>
