<svg version="1.1" x="0px" y="0px" viewBox="0 0 240.32 239.18" style="enable-background:new 0 0 240.32 239.18;">
<g id="home-hero-background">
	<linearGradient id="home-hero-background-rainbow" gradientUnits="userSpaceOnUse" x1="33.6276" y1="186.173" x2="206.2543" y2="13.5463">
		<stop offset="0" style="stop-color:#FF0000"/>
		<stop offset="0.2" style="stop-color:#FFB300"/>
		<stop offset="0.4" style="stop-color:#33FF00"/>
		<stop offset="0.6" style="stop-color:#007BFF"/>
		<stop offset="0.8" style="stop-color:#E600FF"/>
		<stop offset="1" style="stop-color:#FF0000"/>
	</linearGradient>
	<path style="fill:url(#home-hero-background-rainbow);" d="M200.038,150.759c0.26,2.62,0.39,5.27,0.39,7.95c0,44.439-36.029,80.468-80.468,80.468
		s-80.468-36.029-80.468-80.468c0-2.94,0.16-5.84,0.47-8.7C16.063,136.059,0.004,110.14,0.004,80.461
		c0-44.439,36.019-80.458,80.458-80.458c14.64,0,28.369,3.9,40.189,10.73c11.61-6.5,24.989-10.21,39.249-10.21
		c44.449,0,80.468,36.029,80.468,80.468C240.366,110.81,224.147,136.849,200.038,150.759z" />
</g>
<g id="home-hero-foreground">
	<g>
		<defs>
			<circle id="home-hero-foreground-circle-1" cx="80.466" cy="80.466" r="80.466"/>
		</defs>
		<clipPath id="home-hero-foreground-clip-1">
			<use href="#home-hero-foreground-circle-1"  style="overflow:visible;"/>
		</clipPath>
		<g style="clip-path:url(#home-hero-foreground-clip-1);">
			<image style="overflow:visible;" width="512" height="512" href="/assets/img/hero-1.webp" transform="matrix(0.3143 0 0 0.3143 -2.260558e-04 0)" />
		</g>
	</g>
	<g>
		<defs>
			<circle id="home-hero-foreground-circle-2" cx="159.904" cy="80.992" r="80.466"/>
		</defs>
		<clipPath id="home-hero-foreground-clip-2">
			<use href="#home-hero-foreground-circle-2"  style="overflow:visible;"/>
		</clipPath>
		<g style="clip-path:url(#home-hero-foreground-clip-2);">
			<image style="overflow:visible;" width="512" height="512" href="/assets/img/hero-2.webp"  transform="matrix(0.3143 0 0 0.3143 79.4379 0.5264)" />
		</g>
	</g>
	<g>
		<defs>
			<circle id="home-hero-foreground-circle-3" cx="119.963" cy="158.707" r="80.466"/>
		</defs>
		<clipPath id="home-hero-foreground-clip-3">
			<use href="#home-hero-foreground-circle-3"  style="overflow:visible;"/>
		</clipPath>
		<g style="clip-path:url(#home-hero-foreground-clip-3);">
			<image style="overflow:visible;" width="512" height="512" href="/assets/img/hero-3.webp"  transform="matrix(0.3143 0 0 0.3143 39.4973 78.2413)" />
		</g>
	</g>
</g>
</svg>
