<?xml version="1.0" encoding="utf-8"?>
<!-- Generator: Adobe Illustrator 26.4.1, SVG Export Plug-In . SVG Version: 6.00 Build 0)  -->
<svg version="1.1" id="Layer_1" xmlns="http://www.w3.org/2000/svg" xmlns:xlink="http://www.w3.org/1999/xlink" x="0px" y="0px"
	 viewBox="0 0 505.6 512" style="enable-background:new 0 0 505.6 512;" xml:space="preserve">
<style type="text/css">
	.st0{fill:url(#SVGID_1_);}
</style>
<g>
	
		<linearGradient id="SVGID_1_" gradientUnits="userSpaceOnUse" x1="67.9493" y1="167.6126" x2="437.5962" y2="537.2595" gradientTransform="matrix(1 0 0 -1 0 556.798)">
		<stop  offset="0" style="stop-color:#FF0000"/>
		<stop  offset="0.2" style="stop-color:#FFB300"/>
		<stop  offset="0.4" style="stop-color:#33FF00"/>
		<stop  offset="0.6" style="stop-color:#007BFF"/>
		<stop  offset="0.8" style="stop-color:#E600FF"/>
		<stop  offset="1" style="stop-color:#FF0000"/>
	</linearGradient>
	<path class="st0" d="M386.7,296c10,20,15.6,42.6,15.6,66.5c0,82.6-67,149.6-149.6,149.6s-149.6-67-149.6-149.6
		c0-23.9,5.6-46.5,15.6-66.5C50.9,281.7,0,221.6,0,149.6C0,67,67,0,149.6,0c40.1,0,76.4,15.7,103.3,41.4C279.7,15.7,316.1,0,356.1,0
		c82.6,0,149.6,67,149.6,149.6C505.7,221.7,454.6,281.9,386.7,296z"/>
</g>
</svg>
